<?xml version="1.0" encoding="utf-8"?>
<!-- Generator: Adobe Illustrator 23.1.0, SVG Export Plug-In . SVG Version: 6.00 Build 0)  -->
<svg version="1.1" id="Layer_1" xmlns="http://www.w3.org/2000/svg" xmlns:xlink="http://www.w3.org/1999/xlink" x="0px" y="0px"
	 viewBox="0 0 1440 1440" style="enable-background:new 0 0 1440 1440;" xml:space="preserve">
<style type="text/css">
	.st0{fill:#FF83FF;}
	.st1{fill:#88FF7B;}
	.st2{fill:#FFFC85;}
	.st3{fill:#7D9FFF;}
	.st4{fill:none;stroke:#000000;stroke-width:20;stroke-miterlimit:10;}
	.st5{fill:none;stroke:#000000;stroke-width:10;stroke-miterlimit:10;}
</style>
<g>
	<g>
		<g id="XMLID_1_">
			<g>
				<path class="st0" d="M1266.75,620.79c0.03,0.91,0.04,1.84,0.06,2.76c0,285.77-283.01,434.27-283.01,513.55
					c0,10.31-3.76,19.76-10.64,28.31c-5.85-4.4-13.11-7.03-20.96-7.03H709.08v-537.6H1266.75z"/>
				<path class="st1" d="M1266.75,620.79H709.08V65.82C1016.17,65.82,1260.81,314.06,1266.75,620.79z"/>
				<path class="st2" d="M709.08,620.79v537.6H487.64c-6.16,0-11.96,1.62-16.98,4.45c-5.65-7.87-8.7-16.44-8.7-25.73
					c0-121.49-298.19-207.08-310.62-513.55c0-0.92,0-1.84,0.01-2.76H709.08z"/>
				<path class="st3" d="M709.08,65.82v554.97H151.36C153.1,359.18,402.13,65.82,709.08,65.82z"/>
			</g>
			<g>
				<path class="st4" d="M470.66,1162.83c-5.65-7.87-8.7-16.44-8.7-25.73c0-121.49-298.19-207.08-310.62-513.55
					c0-0.92,0-1.84,0.01-2.76"/>
				<path class="st4" d="M709.08,1158.39v-537.6H151.36C153.1,359.18,402.13,65.82,709.08,65.82
					c307.1,0,551.74,248.24,557.67,554.97c0.03,0.91,0.04,1.84,0.06,2.76c0,285.77-283.01,434.27-283.01,513.55
					c0,10.31-3.76,19.76-10.64,28.31"/>
				<path class="st4" d="M973.15,1165.42c8.46,6.39,13.96,16.52,13.96,27.89c0,9.59-3.92,18.33-10.26,24.66
					c-6.32,6.34-15.06,10.26-24.66,10.26H487.64c-19.2,0-34.91-15.71-34.91-34.91c0-9.59,3.93-18.33,10.26-24.66
					c2.26-2.28,4.85-4.24,7.68-5.81c5.03-2.83,10.82-4.45,16.98-4.45h221.44H952.2C960.04,1158.39,967.3,1161.01,973.15,1165.42z"/>
				<path class="st4" d="M946.83,1295.87H493.01c-13.05,0-23.72-10.67-23.72-23.72v-18.06c0-13.05,10.67-23.72,23.72-23.72h453.82
					c13.05,0,23.72,10.67,23.72,23.72v18.06C970.55,1285.2,959.87,1295.87,946.83,1295.87z"/>
				<path class="st4" d="M931.82,1359.2H508c-12.18,0-22.14-9.97-22.14-22.14v-16.87c0-12.18,9.97-22.14,22.14-22.14h423.82
					c12.19,0,22.16,9.97,22.16,22.14v16.87C953.98,1349.23,944.01,1359.2,931.82,1359.2z"/>
				<polyline class="st4" points="709.08,65.82 709.08,620.79 1266.75,620.79 1266.8,620.79 				"/>
			</g>
		</g>
	</g>
	<line class="st5" x1="151.36" y1="620.79" x2="151.35" y2="620.79"/>
	<g>
		<path d="M408.61,540.24v-16.37c3.35,0,6.45-1.1,9.29-3.3c2.83-2.2,5.56-5.14,8.18-8.81c2.62-3.67,5.19-7.61,7.71-11.8l57.6-105.13
			l-64.21-120.55c-2.31-4.19-4.04-7.81-5.19-10.86c-1.16-3.04-2.05-5.4-2.68-7.08c-2.52,0.21-5.04,0.31-7.55,0.31
			c-2.52,0-4.93,0.11-7.24,0.31v-17.31h169.97l1.57,56.97h-13.85c0-11.96-1.94-21.03-5.82-27.23c-3.89-6.19-8.92-10.39-15.11-12.59
			c-6.19-2.2-12.86-3.2-19.99-2.99l-67.67,1.26c2.1,2.31,3.83,4.62,5.19,6.92c1.36,2.31,2.68,4.72,3.93,7.24l56.97,108.91v1.89
			l-65.47,120.55c-2.1,3.78-4.41,7.71-6.92,11.8c-2.52,4.09-5.04,7.92-7.55,11.49l87.5,0.63c8.18,0,15.47-1.52,21.88-4.56
			c6.4-3.04,11.43-8.08,15.11-15.11c3.67-7.03,5.51-16.63,5.51-28.8h14.16l-1.89,64.21H408.61z"/>
	</g>
	<g>
		<path d="M857.74,545.27c-5.87,0-10.91-0.94-15.11-2.83c-4.19-1.89-7.4-4.36-9.6-7.4c-2.2-3.04-3.3-6.35-3.3-9.92
			c0-4.62,1.31-8.55,3.93-11.8c2.63-3.26,6.45-4.88,11.49-4.88c4.83,0,8.61,1.83,11.33,5.51c2.73,3.67,3.67,8.13,2.83,13.38
			c1.47,0.84,2.94,1.42,4.41,1.73c1.47,0.31,2.73,0.47,3.78,0.47c5.04,0,9.13-2.63,12.28-7.87c3.15-5.25,5.61-12.28,7.4-21.09
			c1.78-8.81,3.2-19.04,4.25-30.69c1.05-11.65,1.94-23.97,2.68-36.98c0.73-13.01,1.62-26.02,2.68-39.03
			c0.42-5.87,0.84-12.17,1.26-18.89c0.42-6.71,0.84-13.48,1.26-20.3c0.42-6.82,0.89-13.22,1.42-19.2
			c0.52-5.98,0.99-11.17,1.42-15.58l-27.07,0.31l1.26-17.94h28.01c2.31-14.9,5.61-28.53,9.92-40.92
			c4.3-12.38,10.49-22.24,18.57-29.59c8.08-7.34,18.83-11.02,32.26-11.02c5.24,0,10.07,0.89,14.48,2.68
			c4.41,1.78,8.03,4.15,10.86,7.08c2.83,2.94,4.25,6.51,4.25,10.7c0,3.99-1.31,7.61-3.93,10.86c-2.63,3.26-6.25,4.88-10.86,4.88
			c-5.04,0-8.97-1.83-11.8-5.51c-2.83-3.67-3.83-8.13-2.99-13.38c-0.84-0.63-2.05-1.05-3.62-1.26c-1.57-0.21-3.1-0.31-4.56-0.31
			c-4.2,0.42-7.77,2.41-10.7,5.98c-2.94,3.57-5.25,8.4-6.92,14.48c-1.68,6.09-3.04,13.01-4.09,20.77
			c-1.05,7.77-1.89,15.95-2.52,24.55h43.44l-0.63,16.37l-44.07,0.63c-0.42,7.35-0.84,14.95-1.26,22.82
			c-0.42,7.87-0.84,16.16-1.26,24.87c-0.42,8.71-1.05,17.89-1.89,27.54c-1.05,14.69-2.2,29.22-3.46,43.59
			c-1.26,14.38-3.15,28.01-5.67,40.92c-2.52,12.91-6.14,24.34-10.86,34.31c-4.72,9.96-11.07,17.78-19.04,23.45
			C879.98,542.44,869.91,545.27,857.74,545.27z"/>
	</g>
	<g>
		<path d="M557.33,939.26c-10.28,0-20.51-2.94-30.69-8.81c-10.18-5.87-20.62-16.68-31.32-32.42c-5.88,10.91-13.43,20.3-22.66,28.17
			c-9.24,7.87-20.25,11.8-33.05,11.8c-9.87,0-18.36-1.99-25.5-5.98c-7.14-3.98-13.01-9.33-17.63-16.05
			c-4.62-6.71-8.08-14.06-10.39-22.03c-2.31-7.97-3.46-15.84-3.46-23.61c0-12.17,2.25-23.08,6.77-32.74
			c4.51-9.65,10.91-17.36,19.2-23.13c8.29-5.77,18.1-8.66,29.43-8.66c11.96,0,22.82,3.52,32.58,10.54
			c9.76,7.03,18.93,17.26,27.54,30.69c6.92-12.8,15.53-23.14,25.81-31c10.28-7.87,21.82-11.8,34.62-11.8
			c12.17,0,22.14,3.31,29.9,9.92c7.76,6.61,13.48,15.11,17.15,25.5c3.67,10.39,5.51,21.35,5.51,32.89c0,13.01-2.15,24.55-6.45,34.62
			c-4.3,10.07-10.44,17.94-18.41,23.61C578.32,936.43,568.67,939.26,557.33,939.26z M437.1,910.94c5.67,0,11.43-1.05,17.31-3.15
			c5.87-2.1,11.54-5.3,17-9.6c5.45-4.3,10.18-9.7,14.16-16.21c-1.05-1.68-2.63-4.3-4.72-7.87c-2.1-3.57-4.62-7.6-7.55-12.12
			c-2.94-4.51-6.4-8.81-10.39-12.91c-3.99-4.09-8.39-7.45-13.22-10.07c-4.83-2.62-10.07-3.93-15.74-3.93s-11.23,1.37-16.68,4.09
			c-5.46,2.73-9.87,6.88-13.22,12.43c-3.36,5.56-5.04,12.43-5.04,20.62c0,11.75,3.62,21.14,10.86,28.17
			C417.11,907.43,426.18,910.94,437.1,910.94z M557.02,910.94c7.13,0,13.58-1.78,19.36-5.35c5.77-3.57,10.28-8.44,13.53-14.64
			c3.25-6.19,4.88-13.17,4.88-20.93c0-11.12-3.04-20.51-9.13-28.17c-6.09-7.66-14.79-11.49-26.12-11.49
			c-7.77,0-16.26,2.36-25.5,7.08c-9.24,4.72-18.05,13.27-26.44,25.65c4.2,7.55,8.55,15.01,13.06,22.35
			c4.51,7.35,9.7,13.43,15.58,18.26C542.12,908.53,549.04,910.94,557.02,910.94z"/>
	</g>
	<g>
		<path d="M853.96,985.85c-4.41,0-8.34-1.37-11.8-4.09c-3.46-2.72-5.19-6.71-5.19-11.96c0-5.67,1.78-9.7,5.35-12.12
			c3.57-2.41,6.82-3.62,9.76-3.62c4.61,0,8.6,1.37,11.96,4.09c3.15-1.68,5.71-5.51,7.71-11.49c1.99-5.98,3.57-13.32,4.72-22.03
			c1.15-8.7,1.94-17.89,2.36-27.54c0.42-9.65,0.68-18.99,0.79-28.01c0.1-9.02,0.16-16.79,0.16-23.29c-6.92,0-12.8,0.53-17.63,1.57
			c-4.83,1.05-9.97,2.94-15.42,5.67l-6.92-10.07c4.82-5.87,10.96-11.22,18.41-16.05c7.45-4.82,16.21-7.24,26.28-7.24
			c10.91,0,21.14,0.53,30.69,1.57c9.55,1.05,18.62,2.05,27.23,2.99c8.6,0.94,16.79,1.42,24.55,1.42c5.04,0,9.96-0.58,14.79-1.73
			c4.82-1.15,10.28-3.2,16.37-6.14l7.55,9.76c-2.52,3.36-6.09,7.08-10.7,11.17c-4.62,4.09-9.97,7.29-16.05,9.6
			c0,15.11-0.05,30.27-0.16,45.48c-0.11,15.22-0.16,30.27-0.16,45.17c0,9.44,1.1,16,3.3,19.67c2.2,3.67,5.3,5.51,9.29,5.51
			c1.47,0,3.09-0.31,4.88-0.94c1.78-0.63,3.51-1.47,5.19-2.52l5.67,7.87c-3.36,4.41-7.92,8.39-13.69,11.96
			c-5.77,3.57-12.01,5.35-18.73,5.35c-6.51,0-11.65-1.31-15.42-3.93c-3.78-2.62-6.61-5.93-8.5-9.91c-1.89-3.98-3.1-8.13-3.62-12.43
			c-0.53-4.3-0.79-8.13-0.79-11.49c0-1.68,0-5.4,0-11.17c0-5.77,0.05-12.59,0.16-20.46c0.1-7.87,0.16-15.94,0.16-24.24
			c0-8.29,0-16.1,0-23.45c0-7.34,0-13.32,0-17.94c-5.67-0.42-11.49-0.94-17.47-1.57c-5.98-0.63-11.8-1.2-17.47-1.73
			c-5.67-0.52-10.91-0.99-15.74-1.42c0,8.61-0.05,18.1-0.16,28.49c-0.11,10.39-0.42,20.83-0.94,31.32
			c-0.53,10.5-1.26,20.25-2.2,29.27c-0.94,9.02-2.47,16.37-4.56,22.03c-3.15,9.24-7.71,16.32-13.69,21.25
			C868.29,983.38,861.52,985.85,853.96,985.85z"/>
	</g>
</g>
</svg>
