<svg id="Layer_1" data-name="Layer 1" xmlns="http://www.w3.org/2000/svg" viewBox="0 0 900 900"><title>angle</title><path d="M696.19,146.72c8.61,3.25,16.55,7.43,21.78,15.47,9.16,14.09,6.84,31.61-6.13,44.25q-36.44,35.48-73,70.8-86,83.26-171.94,166.49a42.72,42.72,0,0,1-4.55,3.28c27.81,21.61,49.65,46.53,63.56,77.86,13.79,31.08,18.32,63.71,16.2,98.44h7.32q71,0,141.91,0c19.88,0,34.45,12.38,36.34,30.51,2.17,20.82-13.6,37.48-36,37.57-35.52.14-71,0-106.58,0-17.06,0-34.11.12-51.16-.1-3.9-.06-5.63,1.22-7,4.84-5.81,15.56-12.3,30.86-17.89,46.49-5.06,14.17-13.89,24-28.58,28.08H468.28c-5.65-3-12.1-5.17-16.78-9.31-10.67-9.44-14.08-21.72-9.18-35.33,4.1-11.39,9.17-22.44,14.22-34.64h-7.79q-118.2,0-236.39.06c-11.57,0-21.65-3.1-29.49-11.84a33.19,33.19,0,0,1,.16-44.51c11.43-12.64,23.69-24.54,35.66-36.69q63-64,126.15-128c1.37-1.39,2.61-2.91,5.18-5.8-18.08-3.82-34.77-7.69-51.61-10.78-11.05-2-21.58-4.53-28.65-14.11-8.48-11.48-9.93-24-3.23-36.61,6.81-12.78,18.14-19.68,32.64-17.78a439.67,439.67,0,0,1,51.31,9.69c15.66,4,30.86,9.85,46.13,15.25,3.86,1.37,6.25,1.34,9.41-1.74Q533.75,284.35,661.85,160.49c5.9-5.7,13.9-9.23,20.93-13.77Zm-281.48,350L290.16,622.91H472.75C480.09,575.51,461.21,527.72,414.71,496.71Z"/></svg>