<svg id="Layer_1" data-name="Layer 1" xmlns="http://www.w3.org/2000/svg" viewBox="0 0 900 900"><defs><style>.cls-1{font-size:462px;font-family:MyriadPro-Regular, Myriad Pro;}</style></defs><title>calculus</title><path d="M116.37,671.07l73.45-89.33C221,543.85,252,505.86,283.45,468.21c4.46-5.34,4.21-8.72.6-14.26Q207,335.78,130.35,217.31c-1.48-2.28-2.88-4.63-5-8.05H501.3q3.56,53.46,7.1,106.72c-13.41,3.72-13.16,2.89-18-9.13-6-15-12.56-30.16-21.36-43.63-10.72-16.4-27.83-24.45-47.41-24.63-70.35-.67-140.71-.77-211.07-1.07-.57,0-1.13.37-3,1q65.91,101.34,131.6,202.33L191.52,623.25c4,.26,6.29.55,8.62.55q106,0,212-.2c19,0,38.58-1.29,53.26-14.47,10.25-9.21,17.85-21.64,25.51-33.36,4.66-7.12,7.36-15.56,10.62-23.54,4.91-12,5.07-12.21,20-9.24C513.36,585.54,505.2,628.1,497,671.07Z"/><text class="cls-1" transform="translate(581.8 583.02)">∫</text></svg>