<svg id="Layer_1" data-name="Layer 1" xmlns="http://www.w3.org/2000/svg" viewBox="0 0 900 900"><title>squareroot-02</title><path d="M216.92,479.23C201.24,487,187.1,494.08,172.85,501c-15.9,7.65-27.65,4.93-33.76-7.55-5.83-11.93-1.19-22.16,14.18-29.87,28.69-14.4,57.52-28.53,87.54-43.4L309.44,602.8c2.72-6.44,4.54-10,5.76-13.79q56.43-173.94,112.46-348c3.76-11.78,8.49-16.13,21.41-16.06,103.62.62,207.25.36,310.88.39,4.93,0,11.21-1.74,14.52.62,7.3,5.19,16.68,11.55,18.68,19.15,2.91,11-5.39,19.41-17.13,21.9-4.21.9-8.72.51-13.1.51-93.76,0-187.52.39-281.27-.34-14.29-.11-19.46,5-23.53,17.75q-60.19,188.25-121.93,376c-3,9.13-11.26,20-19.66,23.12-14.65,5.45-24-4.73-29.22-18.88-21.48-57.93-43.36-115.7-65.12-173.52C220.85,488.09,219.23,484.65,216.92,479.23Z"/></svg>